<?xml version="1.0"?>
<svg version="1.1" xmlns="http://www.w3.org/2000/svg" xmlns:xlink="http://www.w3.org/1999/xlink" width="115" height="53">
    <desc iVinci="yes" version="4.6" gridStep="20" showGrid="no" snapToGrid="no" codePlatform="0"/>
    <g id="Layer1" name="Layer 1" opacity="1">
        <g id="Shape1">
            <desc shapeID="1" type="0" basicInfo-basicType="0" basicInfo-roundedRectRadius="12" basicInfo-polygonSides="6" basicInfo-starPoints="5" bounding="rect(-13.43,-13.238,26.86,26.4759)" text="" font-familyName="" font-pixelSize="20" font-bold="0" font-underline="0" font-alignment="1" strokeStyle="0" markerStart="0" markerEnd="0" shadowEnabled="0" shadowOffsetX="0" shadowOffsetY="2" shadowBlur="4" shadowOpacity="160" blurEnabled="0" blurRadius="4" transform="matrix(1,0,0,1,46.4135,26.574)" pers-center="0,0" pers-size="0,0" pers-start="0,0" pers-end="0,0" locked="0" mesh="" flag=""/>
            <path id="shapePath1" d="M32.9845,14.868 C32.9845,14.387 33.3785,13.993 33.8605,13.993 L41.6095,13.993 C42.0925,13.993 42.4855,14.386 42.4855,14.868 L42.4855,15.792 C42.4855,16.273 42.4875,16.665 42.4945,16.665 C42.5005,16.665 42.7865,16.393 43.1365,16.06 C43.1365,16.06 46.1575,13.145 50.9935,13.346 C55.5905,13.534 59.8435,16.18 59.8435,22.102 L59.8435,38.935 C59.8435,39.416 59.4525,39.811 58.9705,39.811 L50.8725,39.811 C50.3895,39.811 49.9985,39.416 49.9985,38.935 L49.9985,27.155 C49.9985,26.671 49.9685,25.885 49.9365,25.406 C49.9365,25.406 49.6495,21.204 46.7625,21.204 C45.0715,21.204 42.8335,22.052 42.8335,26.181 L42.8335,38.936 C42.8335,39.417 42.4405,39.812 41.9575,39.812 L33.8595,39.812 C33.3765,39.812 32.9835,39.417 32.9835,38.936 L32.9835,14.868 L32.9845,14.868 Z" style="stroke:none;fill-rule:nonzero;fill:#747373;fill-opacity:1;"/>
        </g>
        <g id="Shape2">
            <desc shapeID="2" type="0" basicInfo-basicType="0" basicInfo-roundedRectRadius="12" basicInfo-polygonSides="6" basicInfo-starPoints="5" bounding="rect(-13.6819,-13.5555,27.3638,27.111)" text="" font-familyName="" font-pixelSize="20" font-bold="0" font-underline="0" font-alignment="1" strokeStyle="0" markerStart="0" markerEnd="0" shadowEnabled="0" shadowOffsetX="0" shadowOffsetY="2" shadowBlur="4" shadowOpacity="160" blurEnabled="0" blurRadius="4" transform="matrix(1,0,0,1,77.8004,26.9015)" pers-center="0,0" pers-size="0,0" pers-start="0,0" pers-end="0,0" locked="0" mesh="" flag=""/>
            <path id="shapePath2" d="M91.4415,30.01 C91.6475,28.665 91.0335,28.6 90.4825,28.6 L83.1235,28.6 C82.5745,28.6 82.1305,28.963 82.1305,29.514 C81.9325,31.551 80.4365,33.292 78.2975,33.292 C74.5205,33.292 73.9715,30.059 73.9715,26.926 C73.9715,23.791 74.5205,20.507 78.2975,20.507 C79.3445,20.507 80.1905,20.807 80.7875,21.356 C81.4325,21.902 81.7815,22.748 81.8815,23.792 C81.9245,24.373 82.3155,24.659 82.8655,24.659 L90.2225,24.659 C90.7735,24.659 91.3145,24.482 91.1625,23.279 C90.3325,16.526 84.6965,13.346 78.1005,13.346 C70.3385,13.346 64.1185,18.768 64.1185,26.927 C64.1185,35.083 70.3395,40.457 78.1005,40.457 C84.8945,40.457 90.3035,36.706 91.4415,30.01 Z" style="stroke:none;fill-rule:nonzero;fill:#747373;fill-opacity:1;"/>
        </g>
        <g id="Shape3">
            <desc shapeID="3" type="0" basicInfo-basicType="0" basicInfo-roundedRectRadius="12" basicInfo-polygonSides="6" basicInfo-starPoints="5" bounding="rect(-9.5535,-18.1128,19.107,36.2257)" text="" font-familyName="" font-pixelSize="20" font-bold="0" font-underline="0" font-alignment="1" strokeStyle="0" markerStart="0" markerEnd="0" shadowEnabled="0" shadowOffsetX="0" shadowOffsetY="2" shadowBlur="4" shadowOpacity="160" blurEnabled="0" blurRadius="4" transform="matrix(1,0,0,1,102.773,21.6992)" pers-center="0,0" pers-size="0,0" pers-start="0,0" pers-end="0,0" locked="0" mesh="" flag=""/>
            <path id="shapePath3" d="M97.2515,20.937 C97.2515,20.457 96.8585,20.063 96.3765,20.063 L94.0955,20.063 C93.6155,20.063 93.2195,19.668 93.2195,19.186 L93.2195,14.869 C93.2195,14.388 93.6155,13.994 94.0955,13.994 L96.3765,13.994 C96.8585,13.994 97.2635,13.599 97.2745,13.119 C97.2745,13.119 97.4005,8.621 99.2905,6.72998 C101.428,4.591 103.811,3.759 107.794,3.64297 C112.311,3.51099 112.307,3.49799 112.327,4.89297 L112.327,8.64099 C112.327,9.12299 111.936,9.58099 111.464,9.65799 C111.464,9.65799 110.732,9.77698 109.938,9.77698 C107.551,9.77698 106.754,11.606 106.904,13.994 L111.201,13.994 C111.682,13.994 112.078,14.387 112.078,14.869 L112.078,19.186 C112.078,19.668 111.682,20.063 111.201,20.063 L107.978,20.063 C107.497,20.063 107.1,20.456 107.1,20.937 L107.1,38.936 C107.1,39.417 106.71,39.812 106.227,39.812 L98.1265,39.812 C97.6465,39.812 97.2515,39.417 97.2515,38.936 L97.2515,20.937 Z" style="stroke:none;fill-rule:nonzero;fill:#747373;fill-opacity:1;"/>
        </g>
        <g id="Shape4">
            <desc shapeID="4" type="0" basicInfo-basicType="0" basicInfo-roundedRectRadius="12" basicInfo-polygonSides="6" basicInfo-starPoints="5" bounding="rect(-4.92499,-4.92502,9.85001,9.85001)" text="" font-familyName="" font-pixelSize="20" font-bold="0" font-underline="0" font-alignment="1" strokeStyle="0" markerStart="0" markerEnd="0" shadowEnabled="0" shadowOffsetX="0" shadowOffsetY="2" shadowBlur="4" shadowOpacity="160" blurEnabled="0" blurRadius="4" transform="matrix(1,0,0,1,22.1385,6.422)" pers-center="0,0" pers-size="0,0" pers-start="0,0" pers-end="0,0" locked="0" mesh="" flag=""/>
            <path id="shapePath4" d="M27.0635,6.422 C27.0635,9.142 24.8585,11.347 22.1385,11.347 C19.4185,11.347 17.2135,9.142 17.2135,6.422 C17.2135,3.702 19.4185,1.49698 22.1385,1.49698 C24.8585,1.49698 27.0635,3.702 27.0635,6.422 Z" style="stroke:none;fill-rule:evenodd;fill:#009fe3;fill-opacity:1;"/>
        </g>
        <g id="Shape5">
            <desc shapeID="5" type="0" basicInfo-basicType="0" basicInfo-roundedRectRadius="12" basicInfo-polygonSides="6" basicInfo-starPoints="5" bounding="rect(-4.9245,-4.92551,9.849,9.85101)" text="" font-familyName="" font-pixelSize="20" font-bold="0" font-underline="0" font-alignment="1" strokeStyle="0" markerStart="0" markerEnd="0" shadowEnabled="0" shadowOffsetX="0" shadowOffsetY="2" shadowBlur="4" shadowOpacity="160" blurEnabled="0" blurRadius="4" transform="matrix(1,0,0,1,22.339,48.0745)" pers-center="0,0" pers-size="0,0" pers-start="0,0" pers-end="0,0" locked="0" mesh="" flag=""/>
            <path id="shapePath5" d="M27.2635,52.124 C27.2635,52.605 26.8715,53 26.3885,53 L18.2885,53 C17.8085,53 17.4145,52.605 17.4145,52.124 L17.4145,44.024 C17.4145,43.544 17.8085,43.149 18.2885,43.149 L26.3885,43.149 C26.8715,43.149 27.2635,43.544 27.2635,44.024 L27.2635,52.124 Z" style="stroke:none;fill-rule:nonzero;fill:#747373;fill-opacity:1;"/>
        </g>
        <g id="Shape6">
            <desc shapeID="6" type="0" basicInfo-basicType="0" basicInfo-roundedRectRadius="12" basicInfo-polygonSides="6" basicInfo-starPoints="5" bounding="rect(-7.83749,-12.9085,15.675,25.817)" text="" font-familyName="" font-pixelSize="20" font-bold="0" font-underline="0" font-alignment="1" strokeStyle="0" markerStart="0" markerEnd="0" shadowEnabled="0" shadowOffsetX="0" shadowOffsetY="2" shadowBlur="4" shadowOpacity="160" blurEnabled="0" blurRadius="4" transform="matrix(1,0,0,1,19.623,26.8845)" pers-center="0,0" pers-size="0,0" pers-start="0,0" pers-end="0,0" locked="0" mesh="" flag=""/>
            <path id="shapePath6" d="M18.6055,13.977 C18.1225,13.977 17.7305,13.977 17.7305,13.977 C17.7305,13.977 17.3365,13.976 16.8545,13.976 L12.6595,13.976 C12.1765,13.976 11.7855,14.37 11.7855,14.851 L11.7855,22.948 C11.7855,23.43 12.1765,23.823 12.6595,23.823 L16.7345,23.823 C17.2165,23.823 17.6105,24.218 17.6105,24.699 L17.6105,38.917 C17.6105,39.398 18.0035,39.793 18.4865,39.793 L26.5845,39.793 C27.0675,39.793 27.4605,39.398 27.4605,38.917 L27.4605,14.852 C27.4605,14.37 27.0665,13.977 26.5845,13.977 L18.6055,13.977 Z" style="stroke:none;fill-rule:nonzero;fill:#747373;fill-opacity:1;"/>
        </g>
        <g id="Shape7">
            <desc shapeID="7" type="0" basicInfo-basicType="0" basicInfo-roundedRectRadius="12" basicInfo-polygonSides="6" basicInfo-starPoints="5" bounding="rect(-4.40326,-5.52542,8.80652,11.0508)" text="" font-familyName="" font-pixelSize="20" font-bold="0" font-underline="0" font-alignment="1" strokeStyle="0" markerStart="0" markerEnd="0" shadowEnabled="0" shadowOffsetX="0" shadowOffsetY="2" shadowBlur="4" shadowOpacity="160" blurEnabled="0" blurRadius="4" transform="matrix(1,0,0,1,4.40326,18.9193)" pers-center="0,0" pers-size="0,0" pers-start="0,0" pers-end="0,0" locked="0" mesh="" flag=""/>
            <path id="shapePath7" d="M8.80652,13.917 C8.80652,13.436 8.47052,13.253 8.0665,13.511 L0.304504,18.45 C-0.101501,18.71 -0.101501,19.132 0.304504,19.39 L8.0665,24.327 C8.47052,24.586 8.80652,24.403 8.80652,23.923 L8.80652,13.917 Z" style="stroke:none;fill-rule:nonzero;fill:#747373;fill-opacity:1;"/>
        </g>
    </g>
</svg>
